# xmcd
#
# Track frame offsets:
#	183
#	16418
#	29928
#	42498
#	54140
#	71275
#	86248
#	103100
#	115305
#	128015
#	144093
#	155690
#	170745
#	179820
#	191345
#	203728
#	215613
#	225915
#	236280
#	252125
#	264460
#	274983
#	287128
#	301355
#	311320
#
# Disc length: 4323 seconds
#
# Revision: 1
# Processed by: cddbd v1.4PL0 Copyright (c) Steve Scherf et al.
# Submitted via: audiograbber 1.81.03
#
DISCID=6810e119
DTITLE=The Righteous Brothers - The Ultimate Righteous Brothers Collection
DYEAR=1991
DGENRE=Country
TTITLE0=Unchained Melody
TTITLE1=He
TTITLE2=He Will Break Your Heart
TTITLE3=Go Ahead And Cry
TTITLE4=Just Once In My Life
TTITLE5=Come Rain Or Come Shine
TTITLE6=You've Lost That Lovin' Feelin'
TTITLE7=(I Love You) For Sentimental Reasons
TTITLE8=Ebb Tide
TTITLE9=Standed In The Middle Of Noplace
TTITLE10=Melancholy Music Man
TTITLE11=(You're My) Soul And Inspriation
TTITLE12=Bye Bye Love
TTITLE13=The Great Pretender
TTITLE14=Country Boy
TTITLE15=Georgia On My Mind
TTITLE16=The White Cliffs Of Dover
TTITLE17=You'll Never Walk Alone
TTITLE18=Rock and Roll Heaven'
TTITLE19=My Prayer
TTITLE20=Ltttle Latin Lupe Lu
TTITLE21=By Babe
TTITLE22=On This Side Of Goodbye
TTITLE23=Justine
TTITLE24=Put A Little Love In Your Heart
EXTD=
EXTT0=
EXTT1=
EXTT2=
EXTT3=
EXTT4=
EXTT5=
EXTT6=
EXTT7=
EXTT8=
EXTT9=
EXTT10=
EXTT11=
EXTT12=
EXTT13=
EXTT14=
EXTT15=
EXTT16=
EXTT17=
EXTT18=
EXTT19=
EXTT20=
EXTT21=
EXTT22=
EXTT23=
EXTT24=
PLAYORDER=
